<mxfile host="app.diagrams.net" modified="2024-06-23T11:00:47.332Z" agent="Mozilla/5.0 (Windows NT 10.0; Win64; x64) AppleWebKit/537.36 (KHTML, like Gecko) Chrome/99.0.4844.84 Safari/537.36 HBPC/12.1.3.303" etag="2Lhvq6wfZ7x5DD-7dRpb" version="24.6.2" type="device">
  <diagram name="第 1 页" id="q0bwX9JqYcTB7iijyK7C">
    <mxGraphModel dx="1014" dy="627" grid="1" gridSize="10" guides="1" tooltips="1" connect="1" arrows="1" fold="1" page="1" pageScale="1" pageWidth="827" pageHeight="1169" math="0" shadow="0">
      <root>
        <mxCell id="0" />
        <mxCell id="1" parent="0" />
        <mxCell id="GwFExAyLa7h8qEdAbrnv-1" value="UserService" style="swimlane;fontStyle=0;align=center;verticalAlign=top;childLayout=stackLayout;horizontal=1;startSize=26;horizontalStack=0;resizeParent=1;resizeLast=0;collapsible=1;marginBottom=0;rounded=0;shadow=0;strokeWidth=1;" vertex="1" parent="1">
          <mxGeometry x="700" y="890" width="190" height="170" as="geometry">
            <mxRectangle x="550" y="140" width="160" height="26" as="alternateBounds" />
          </mxGeometry>
        </mxCell>
        <mxCell id="GwFExAyLa7h8qEdAbrnv-2" value="userRepository UserRepository " style="text;align=left;verticalAlign=top;spacingLeft=4;spacingRight=4;overflow=hidden;rotatable=0;points=[[0,0.5],[1,0.5]];portConstraint=eastwest;" vertex="1" parent="GwFExAyLa7h8qEdAbrnv-1">
          <mxGeometry y="26" width="190" height="26" as="geometry" />
        </mxCell>
        <mxCell id="GwFExAyLa7h8qEdAbrnv-3" value="" style="line;html=1;strokeWidth=1;align=left;verticalAlign=middle;spacingTop=-1;spacingLeft=3;spacingRight=3;rotatable=0;labelPosition=right;points=[];portConstraint=eastwest;" vertex="1" parent="GwFExAyLa7h8qEdAbrnv-1">
          <mxGeometry y="52" width="190" height="8" as="geometry" />
        </mxCell>
        <mxCell id="GwFExAyLa7h8qEdAbrnv-4" value="+saveUser()" style="text;align=left;verticalAlign=top;spacingLeft=4;spacingRight=4;overflow=hidden;rotatable=0;points=[[0,0.5],[1,0.5]];portConstraint=eastwest;" vertex="1" parent="GwFExAyLa7h8qEdAbrnv-1">
          <mxGeometry y="60" width="190" height="26" as="geometry" />
        </mxCell>
        <mxCell id="GwFExAyLa7h8qEdAbrnv-5" value="+updateUser()" style="text;align=left;verticalAlign=top;spacingLeft=4;spacingRight=4;overflow=hidden;rotatable=0;points=[[0,0.5],[1,0.5]];portConstraint=eastwest;" vertex="1" parent="GwFExAyLa7h8qEdAbrnv-1">
          <mxGeometry y="86" width="190" height="26" as="geometry" />
        </mxCell>
        <mxCell id="GwFExAyLa7h8qEdAbrnv-6" value="+checkid()" style="text;align=left;verticalAlign=top;spacingLeft=4;spacingRight=4;overflow=hidden;rotatable=0;points=[[0,0.5],[1,0.5]];portConstraint=eastwest;" vertex="1" parent="GwFExAyLa7h8qEdAbrnv-1">
          <mxGeometry y="112" width="190" height="26" as="geometry" />
        </mxCell>
        <mxCell id="GwFExAyLa7h8qEdAbrnv-7" value="+findAllUsers()" style="text;align=left;verticalAlign=top;spacingLeft=4;spacingRight=4;overflow=hidden;rotatable=0;points=[[0,0.5],[1,0.5]];portConstraint=eastwest;" vertex="1" parent="GwFExAyLa7h8qEdAbrnv-1">
          <mxGeometry y="138" width="190" height="26" as="geometry" />
        </mxCell>
        <mxCell id="GwFExAyLa7h8qEdAbrnv-8" value="RoomService" style="swimlane;fontStyle=0;align=center;verticalAlign=top;childLayout=stackLayout;horizontal=1;startSize=26;horizontalStack=0;resizeParent=1;resizeLast=0;collapsible=1;marginBottom=0;rounded=0;shadow=0;strokeWidth=1;" vertex="1" parent="1">
          <mxGeometry x="700" y="610" width="190" height="170" as="geometry">
            <mxRectangle x="550" y="140" width="160" height="26" as="alternateBounds" />
          </mxGeometry>
        </mxCell>
        <mxCell id="GwFExAyLa7h8qEdAbrnv-9" value="roomRepository RoomRepository " style="text;align=left;verticalAlign=top;spacingLeft=4;spacingRight=4;overflow=hidden;rotatable=0;points=[[0,0.5],[1,0.5]];portConstraint=eastwest;" vertex="1" parent="GwFExAyLa7h8qEdAbrnv-8">
          <mxGeometry y="26" width="190" height="26" as="geometry" />
        </mxCell>
        <mxCell id="GwFExAyLa7h8qEdAbrnv-10" value="" style="line;html=1;strokeWidth=1;align=left;verticalAlign=middle;spacingTop=-1;spacingLeft=3;spacingRight=3;rotatable=0;labelPosition=right;points=[];portConstraint=eastwest;" vertex="1" parent="GwFExAyLa7h8qEdAbrnv-8">
          <mxGeometry y="52" width="190" height="8" as="geometry" />
        </mxCell>
        <mxCell id="GwFExAyLa7h8qEdAbrnv-11" value="+saveRoom()" style="text;align=left;verticalAlign=top;spacingLeft=4;spacingRight=4;overflow=hidden;rotatable=0;points=[[0,0.5],[1,0.5]];portConstraint=eastwest;" vertex="1" parent="GwFExAyLa7h8qEdAbrnv-8">
          <mxGeometry y="60" width="190" height="26" as="geometry" />
        </mxCell>
        <mxCell id="GwFExAyLa7h8qEdAbrnv-12" value="+updateRoom()" style="text;align=left;verticalAlign=top;spacingLeft=4;spacingRight=4;overflow=hidden;rotatable=0;points=[[0,0.5],[1,0.5]];portConstraint=eastwest;" vertex="1" parent="GwFExAyLa7h8qEdAbrnv-8">
          <mxGeometry y="86" width="190" height="26" as="geometry" />
        </mxCell>
        <mxCell id="GwFExAyLa7h8qEdAbrnv-13" value="+checkroomname()" style="text;align=left;verticalAlign=top;spacingLeft=4;spacingRight=4;overflow=hidden;rotatable=0;points=[[0,0.5],[1,0.5]];portConstraint=eastwest;" vertex="1" parent="GwFExAyLa7h8qEdAbrnv-8">
          <mxGeometry y="112" width="190" height="26" as="geometry" />
        </mxCell>
        <mxCell id="GwFExAyLa7h8qEdAbrnv-14" value="+findAllRooms()" style="text;align=left;verticalAlign=top;spacingLeft=4;spacingRight=4;overflow=hidden;rotatable=0;points=[[0,0.5],[1,0.5]];portConstraint=eastwest;" vertex="1" parent="GwFExAyLa7h8qEdAbrnv-8">
          <mxGeometry y="138" width="190" height="26" as="geometry" />
        </mxCell>
        <mxCell id="GwFExAyLa7h8qEdAbrnv-15" value="TalkService" style="swimlane;fontStyle=0;align=center;verticalAlign=top;childLayout=stackLayout;horizontal=1;startSize=26;horizontalStack=0;resizeParent=1;resizeLast=0;collapsible=1;marginBottom=0;rounded=0;shadow=0;strokeWidth=1;" vertex="1" parent="1">
          <mxGeometry x="400" y="610" width="190" height="170" as="geometry">
            <mxRectangle x="550" y="140" width="160" height="26" as="alternateBounds" />
          </mxGeometry>
        </mxCell>
        <mxCell id="GwFExAyLa7h8qEdAbrnv-16" value="talkRepository TalkRepository " style="text;align=left;verticalAlign=top;spacingLeft=4;spacingRight=4;overflow=hidden;rotatable=0;points=[[0,0.5],[1,0.5]];portConstraint=eastwest;" vertex="1" parent="GwFExAyLa7h8qEdAbrnv-15">
          <mxGeometry y="26" width="190" height="26" as="geometry" />
        </mxCell>
        <mxCell id="GwFExAyLa7h8qEdAbrnv-17" value="" style="line;html=1;strokeWidth=1;align=left;verticalAlign=middle;spacingTop=-1;spacingLeft=3;spacingRight=3;rotatable=0;labelPosition=right;points=[];portConstraint=eastwest;" vertex="1" parent="GwFExAyLa7h8qEdAbrnv-15">
          <mxGeometry y="52" width="190" height="8" as="geometry" />
        </mxCell>
        <mxCell id="GwFExAyLa7h8qEdAbrnv-18" value="+saveTalk()" style="text;align=left;verticalAlign=top;spacingLeft=4;spacingRight=4;overflow=hidden;rotatable=0;points=[[0,0.5],[1,0.5]];portConstraint=eastwest;" vertex="1" parent="GwFExAyLa7h8qEdAbrnv-15">
          <mxGeometry y="60" width="190" height="26" as="geometry" />
        </mxCell>
        <mxCell id="GwFExAyLa7h8qEdAbrnv-19" value="+updateTalk()" style="text;align=left;verticalAlign=top;spacingLeft=4;spacingRight=4;overflow=hidden;rotatable=0;points=[[0,0.5],[1,0.5]];portConstraint=eastwest;" vertex="1" parent="GwFExAyLa7h8qEdAbrnv-15">
          <mxGeometry y="86" width="190" height="26" as="geometry" />
        </mxCell>
        <mxCell id="GwFExAyLa7h8qEdAbrnv-20" value="+checktime()" style="text;align=left;verticalAlign=top;spacingLeft=4;spacingRight=4;overflow=hidden;rotatable=0;points=[[0,0.5],[1,0.5]];portConstraint=eastwest;" vertex="1" parent="GwFExAyLa7h8qEdAbrnv-15">
          <mxGeometry y="112" width="190" height="26" as="geometry" />
        </mxCell>
        <mxCell id="GwFExAyLa7h8qEdAbrnv-21" value="+findAllTalks()" style="text;align=left;verticalAlign=top;spacingLeft=4;spacingRight=4;overflow=hidden;rotatable=0;points=[[0,0.5],[1,0.5]];portConstraint=eastwest;" vertex="1" parent="GwFExAyLa7h8qEdAbrnv-15">
          <mxGeometry y="138" width="190" height="26" as="geometry" />
        </mxCell>
        <mxCell id="GwFExAyLa7h8qEdAbrnv-22" value="GameService" style="swimlane;fontStyle=0;align=center;verticalAlign=top;childLayout=stackLayout;horizontal=1;startSize=26;horizontalStack=0;resizeParent=1;resizeLast=0;collapsible=1;marginBottom=0;rounded=0;shadow=0;strokeWidth=1;" vertex="1" parent="1">
          <mxGeometry x="400" y="895" width="190" height="170" as="geometry">
            <mxRectangle x="550" y="140" width="160" height="26" as="alternateBounds" />
          </mxGeometry>
        </mxCell>
        <mxCell id="GwFExAyLa7h8qEdAbrnv-23" value="gameRepository GameRepository " style="text;align=left;verticalAlign=top;spacingLeft=4;spacingRight=4;overflow=hidden;rotatable=0;points=[[0,0.5],[1,0.5]];portConstraint=eastwest;" vertex="1" parent="GwFExAyLa7h8qEdAbrnv-22">
          <mxGeometry y="26" width="190" height="26" as="geometry" />
        </mxCell>
        <mxCell id="GwFExAyLa7h8qEdAbrnv-24" value="" style="line;html=1;strokeWidth=1;align=left;verticalAlign=middle;spacingTop=-1;spacingLeft=3;spacingRight=3;rotatable=0;labelPosition=right;points=[];portConstraint=eastwest;" vertex="1" parent="GwFExAyLa7h8qEdAbrnv-22">
          <mxGeometry y="52" width="190" height="8" as="geometry" />
        </mxCell>
        <mxCell id="GwFExAyLa7h8qEdAbrnv-25" value="+saveGame()" style="text;align=left;verticalAlign=top;spacingLeft=4;spacingRight=4;overflow=hidden;rotatable=0;points=[[0,0.5],[1,0.5]];portConstraint=eastwest;" vertex="1" parent="GwFExAyLa7h8qEdAbrnv-22">
          <mxGeometry y="60" width="190" height="26" as="geometry" />
        </mxCell>
        <mxCell id="GwFExAyLa7h8qEdAbrnv-26" value="+updateGame()" style="text;align=left;verticalAlign=top;spacingLeft=4;spacingRight=4;overflow=hidden;rotatable=0;points=[[0,0.5],[1,0.5]];portConstraint=eastwest;" vertex="1" parent="GwFExAyLa7h8qEdAbrnv-22">
          <mxGeometry y="86" width="190" height="26" as="geometry" />
        </mxCell>
        <mxCell id="GwFExAyLa7h8qEdAbrnv-27" value="+checkid()" style="text;align=left;verticalAlign=top;spacingLeft=4;spacingRight=4;overflow=hidden;rotatable=0;points=[[0,0.5],[1,0.5]];portConstraint=eastwest;" vertex="1" parent="GwFExAyLa7h8qEdAbrnv-22">
          <mxGeometry y="112" width="190" height="26" as="geometry" />
        </mxCell>
        <mxCell id="GwFExAyLa7h8qEdAbrnv-28" value="+findAllGames()" style="text;align=left;verticalAlign=top;spacingLeft=4;spacingRight=4;overflow=hidden;rotatable=0;points=[[0,0.5],[1,0.5]];portConstraint=eastwest;" vertex="1" parent="GwFExAyLa7h8qEdAbrnv-22">
          <mxGeometry y="138" width="190" height="26" as="geometry" />
        </mxCell>
        <mxCell id="GwFExAyLa7h8qEdAbrnv-29" value="«interface»&lt;br&gt;RoomRepository" style="html=1;whiteSpace=wrap;" vertex="1" parent="1">
          <mxGeometry x="740" y="520" width="110" height="50" as="geometry" />
        </mxCell>
        <mxCell id="GwFExAyLa7h8qEdAbrnv-30" value="«interface»&lt;br&gt;TalkRepository" style="html=1;whiteSpace=wrap;" vertex="1" parent="1">
          <mxGeometry x="440" y="520" width="110" height="50" as="geometry" />
        </mxCell>
        <mxCell id="GwFExAyLa7h8qEdAbrnv-31" value="«interface»&lt;br&gt;UserRepository" style="html=1;whiteSpace=wrap;" vertex="1" parent="1">
          <mxGeometry x="740" y="805" width="110" height="50" as="geometry" />
        </mxCell>
        <mxCell id="GwFExAyLa7h8qEdAbrnv-32" value="«interface»&lt;br&gt;GameRepository" style="html=1;whiteSpace=wrap;" vertex="1" parent="1">
          <mxGeometry x="440" y="805" width="110" height="50" as="geometry" />
        </mxCell>
        <mxCell id="GwFExAyLa7h8qEdAbrnv-33" value="" style="endArrow=block;dashed=1;endFill=0;endSize=12;html=1;rounded=0;" edge="1" parent="1" source="GwFExAyLa7h8qEdAbrnv-1" target="GwFExAyLa7h8qEdAbrnv-31">
          <mxGeometry width="160" relative="1" as="geometry">
            <mxPoint x="890" y="1010" as="sourcePoint" />
            <mxPoint x="1050" y="1010" as="targetPoint" />
          </mxGeometry>
        </mxCell>
        <mxCell id="GwFExAyLa7h8qEdAbrnv-34" value="" style="endArrow=block;dashed=1;endFill=0;endSize=12;html=1;rounded=0;" edge="1" parent="1" source="GwFExAyLa7h8qEdAbrnv-15" target="GwFExAyLa7h8qEdAbrnv-30">
          <mxGeometry width="160" relative="1" as="geometry">
            <mxPoint x="600" y="400" as="sourcePoint" />
            <mxPoint x="760" y="400" as="targetPoint" />
          </mxGeometry>
        </mxCell>
        <mxCell id="GwFExAyLa7h8qEdAbrnv-35" value="" style="endArrow=block;dashed=1;endFill=0;endSize=12;html=1;rounded=0;" edge="1" parent="1" source="GwFExAyLa7h8qEdAbrnv-8" target="GwFExAyLa7h8qEdAbrnv-29">
          <mxGeometry width="160" relative="1" as="geometry">
            <mxPoint x="400" y="675" as="sourcePoint" />
            <mxPoint x="560" y="675" as="targetPoint" />
          </mxGeometry>
        </mxCell>
        <mxCell id="GwFExAyLa7h8qEdAbrnv-36" value="" style="endArrow=block;dashed=1;endFill=0;endSize=12;html=1;rounded=0;" edge="1" parent="1" source="GwFExAyLa7h8qEdAbrnv-22" target="GwFExAyLa7h8qEdAbrnv-32">
          <mxGeometry width="160" relative="1" as="geometry">
            <mxPoint x="279" y="875" as="sourcePoint" />
            <mxPoint x="439" y="875" as="targetPoint" />
          </mxGeometry>
        </mxCell>
        <mxCell id="GwFExAyLa7h8qEdAbrnv-37" value="AssitantmyService" style="swimlane;fontStyle=0;align=center;verticalAlign=top;childLayout=stackLayout;horizontal=1;startSize=26;horizontalStack=0;resizeParent=1;resizeLast=0;collapsible=1;marginBottom=0;rounded=0;shadow=0;strokeWidth=1;" vertex="1" parent="1">
          <mxGeometry x="910" y="755" width="190" height="100" as="geometry">
            <mxRectangle x="550" y="140" width="160" height="26" as="alternateBounds" />
          </mxGeometry>
        </mxCell>
        <mxCell id="GwFExAyLa7h8qEdAbrnv-38" value="assistant Assistant" style="text;align=left;verticalAlign=top;spacingLeft=4;spacingRight=4;overflow=hidden;rotatable=0;points=[[0,0.5],[1,0.5]];portConstraint=eastwest;" vertex="1" parent="GwFExAyLa7h8qEdAbrnv-37">
          <mxGeometry y="26" width="190" height="26" as="geometry" />
        </mxCell>
        <mxCell id="GwFExAyLa7h8qEdAbrnv-39" value="" style="line;html=1;strokeWidth=1;align=left;verticalAlign=middle;spacingTop=-1;spacingLeft=3;spacingRight=3;rotatable=0;labelPosition=right;points=[];portConstraint=eastwest;" vertex="1" parent="GwFExAyLa7h8qEdAbrnv-37">
          <mxGeometry y="52" width="190" height="8" as="geometry" />
        </mxCell>
        <mxCell id="GwFExAyLa7h8qEdAbrnv-40" value="+assitant()" style="text;align=left;verticalAlign=top;spacingLeft=4;spacingRight=4;overflow=hidden;rotatable=0;points=[[0,0.5],[1,0.5]];portConstraint=eastwest;" vertex="1" parent="GwFExAyLa7h8qEdAbrnv-37">
          <mxGeometry y="60" width="190" height="26" as="geometry" />
        </mxCell>
        <mxCell id="GwFExAyLa7h8qEdAbrnv-41" value="«interface»&lt;br&gt;Assistant" style="html=1;whiteSpace=wrap;" vertex="1" parent="1">
          <mxGeometry x="950" y="665" width="110" height="50" as="geometry" />
        </mxCell>
        <mxCell id="GwFExAyLa7h8qEdAbrnv-42" value="" style="endArrow=block;dashed=1;endFill=0;endSize=12;html=1;rounded=0;" edge="1" parent="1" source="GwFExAyLa7h8qEdAbrnv-37" target="GwFExAyLa7h8qEdAbrnv-41">
          <mxGeometry width="160" relative="1" as="geometry">
            <mxPoint x="760" y="655" as="sourcePoint" />
            <mxPoint x="920" y="655" as="targetPoint" />
          </mxGeometry>
        </mxCell>
        <mxCell id="GwFExAyLa7h8qEdAbrnv-43" value="modelService" style="html=1;whiteSpace=wrap;" vertex="1" parent="1">
          <mxGeometry x="590" y="490" width="110" height="50" as="geometry" />
        </mxCell>
      </root>
    </mxGraphModel>
  </diagram>
</mxfile>
